<svg width="1638" height="1172" viewBox="0 0 1638 1172" fill="none" xmlns="http://www.w3.org/2000/svg">
<path d="M193.32 0H259.76V308H193.32V179.08H66.6V308H0.600006V0H66.6V122.32H193.32V0Z" fill="url(#paint0_linear)"/>
<path d="M402.22 82.72C430.38 82.72 453.554 90.3467 471.74 105.6C489.927 120.56 499.02 140.507 499.02 165.44V308H438.3V277.2C434.487 287.467 426.86 295.827 415.42 302.28C404.274 308.44 391.074 311.52 375.82 311.52C354.407 311.52 336.954 305.213 323.46 292.6C309.967 279.987 303.22 264.147 303.22 245.08C303.22 223.373 310.554 206.36 325.22 194.04C340.18 181.427 359.834 175.12 384.18 175.12H421.58C426.86 175.12 430.967 173.653 433.9 170.72C436.834 167.493 438.3 163.533 438.3 158.84C438.3 149.453 434.78 141.973 427.74 136.4C420.7 130.533 411.02 127.6 398.7 127.6C386.087 127.6 376.114 130.973 368.78 137.72C361.74 144.467 357.927 152.827 357.34 162.8H302.78C304.247 139.627 313.78 120.56 331.38 105.6C349.274 90.3467 372.887 82.72 402.22 82.72ZM391.22 267.08C405.887 267.08 417.327 262.387 425.54 253C434.047 243.613 438.3 231.587 438.3 216.92V213.84H393.42C384.034 213.84 376.407 216.48 370.54 221.76C364.674 227.04 361.74 233.933 361.74 242.44C361.74 249.773 364.527 255.787 370.1 260.48C375.674 264.88 382.714 267.08 391.22 267.08Z" fill="url(#paint1_linear)"/>
<path d="M544.523 397.76V86.24H605.683V110.44C619.763 91.96 641.029 82.72 669.483 82.72C700.283 82.72 724.923 93.1333 743.403 113.96C761.883 134.787 771.123 162.507 771.123 197.12C771.123 231.44 761.296 259.16 741.643 280.28C721.989 301.107 696.176 311.52 664.203 311.52C637.509 311.52 618.003 303.747 605.683 288.2V397.76H544.523ZM656.723 258.72C672.856 258.72 685.909 253.147 695.883 242C705.856 230.56 710.843 215.6 710.843 197.12C710.843 178.347 705.856 163.387 695.883 152.24C685.909 140.8 672.856 135.08 656.723 135.08C640.296 135.08 627.096 140.8 617.123 152.24C607.149 163.387 602.163 178.347 602.163 197.12C602.163 215.6 607.149 230.56 617.123 242C627.096 253.147 640.296 258.72 656.723 258.72Z" fill="url(#paint2_linear)"/>
<path d="M807.921 397.76V86.24H869.081V110.44C883.161 91.96 904.428 82.72 932.881 82.72C963.681 82.72 988.321 93.1333 1006.8 113.96C1025.28 134.787 1034.52 162.507 1034.52 197.12C1034.52 231.44 1024.69 259.16 1005.04 280.28C985.388 301.107 959.574 311.52 927.601 311.52C900.908 311.52 881.401 303.747 869.081 288.2V397.76H807.921ZM920.121 258.72C936.254 258.72 949.308 253.147 959.281 242C969.254 230.56 974.241 215.6 974.241 197.12C974.241 178.347 969.254 163.387 959.281 152.24C949.308 140.8 936.254 135.08 920.121 135.08C903.694 135.08 890.494 140.8 880.521 152.24C870.548 163.387 865.561 178.347 865.561 197.12C865.561 215.6 870.548 230.56 880.521 242C890.494 253.147 903.694 258.72 920.121 258.72Z" fill="url(#paint3_linear)"/>
<path d="M1255.93 86.24L1175.41 307.12L1144.17 397.76H1085.65L1118.21 306.24L1037.69 86.24H1100.17L1146.81 229.24L1193.01 86.24H1255.93Z" fill="url(#paint4_linear)"/>
<path d="M0.600006 738V430H122.92C151.667 430 175.133 437.04 193.32 451.12C211.507 464.907 220.6 484.267 220.6 509.2C220.6 522.693 217.08 534.867 210.04 545.72C203 556.573 194.493 564.64 184.52 569.92C199.773 575.787 212.24 585.173 221.92 598.08C231.6 610.987 236.44 626.973 236.44 646.04C236.44 674.787 226.32 697.373 206.08 713.8C186.133 729.933 159.587 738 126.44 738H0.600006ZM65.72 547.48H118.08C145.653 547.48 159.44 536.627 159.44 514.92C159.44 493.213 145.213 482.36 116.76 482.36H65.72V547.48ZM65.72 680.8H120.72C155.92 680.8 173.52 668.04 173.52 642.52C173.52 616.413 155.92 603.36 120.72 603.36H65.72V680.8Z" fill="url(#paint5_linear)"/>
<path d="M271.117 419.88H336.238V484.56H271.117V419.88ZM272.878 738V516.24H334.478V738H272.878Z" fill="url(#paint6_linear)"/>
<path d="M528.6 450.68H589.76V516.24H649.16V567.28H589.76V654.84C589.76 675.96 600.173 686.52 621 686.52H649.16V738H612.64C586.827 738 566.293 730.96 551.04 716.88C536.08 702.8 528.6 683 528.6 657.48V450.68ZM511.44 567.28H485.04C470.373 567.28 459.373 572.853 452.04 584C444.707 595.147 441.04 610.547 441.04 630.2V738H379.44V516.24H441.04V553.2C446.907 539.707 454.093 530.173 462.6 524.6C471.4 519.027 482.693 516.24 496.48 516.24H511.44V567.28Z" fill="url(#paint7_linear)"/>
<path d="M699.21 738V419.88H760.37V547.04C773.863 524.16 796.45 512.72 828.13 512.72C852.77 512.72 872.57 520.787 887.53 536.92C902.783 553.053 910.41 574.027 910.41 599.84V738H849.25V613.48C849.25 599.987 845.143 588.987 836.93 580.48C829.01 571.68 818.743 567.28 806.13 567.28C792.637 567.28 781.637 571.973 773.13 581.36C764.623 590.453 760.37 602.187 760.37 616.56V738H699.21Z" fill="url(#paint8_linear)"/>
<path d="M1048.5 741.52C1016.23 741.52 990.715 731.253 971.941 710.72C953.168 689.893 943.781 662.027 943.781 627.12C943.781 592.507 953.021 564.787 971.501 543.96C990.275 523.133 1015.65 512.72 1047.62 512.72C1075.19 512.72 1095.73 521.667 1109.22 539.56V419.88H1170.38V738H1109.22V713.8C1096.02 732.28 1075.78 741.52 1048.5 741.52ZM1019.46 672C1029.43 683.147 1042.49 688.72 1058.62 688.72C1074.75 688.72 1087.81 683.147 1097.78 672C1107.75 660.56 1112.74 645.6 1112.74 627.12C1112.74 608.347 1107.75 593.387 1097.78 582.24C1088.1 570.8 1075.05 565.08 1058.62 565.08C1042.19 565.08 1028.99 570.8 1019.02 582.24C1009.34 593.387 1004.5 608.347 1004.5 627.12C1004.5 645.6 1009.49 660.56 1019.46 672Z" fill="url(#paint9_linear)"/>
<path d="M1310.58 512.72C1338.74 512.72 1361.91 520.347 1380.1 535.6C1398.29 550.56 1407.38 570.507 1407.38 595.44V738H1346.66V707.2C1342.85 717.467 1335.22 725.827 1323.78 732.28C1312.63 738.44 1299.43 741.52 1284.18 741.52C1262.77 741.52 1245.31 735.213 1231.82 722.6C1218.33 709.987 1211.58 694.147 1211.58 675.08C1211.58 653.373 1218.91 636.36 1233.58 624.04C1248.54 611.427 1268.19 605.12 1292.54 605.12H1329.94C1335.22 605.12 1339.33 603.653 1342.26 600.72C1345.19 597.493 1346.66 593.533 1346.66 588.84C1346.66 579.453 1343.14 571.973 1336.1 566.4C1329.06 560.533 1319.38 557.6 1307.06 557.6C1294.45 557.6 1284.47 560.973 1277.14 567.72C1270.1 574.467 1266.29 582.827 1265.7 592.8H1211.14C1212.61 569.627 1222.14 550.56 1239.74 535.6C1257.63 520.347 1281.25 512.72 1310.58 512.72ZM1299.58 697.08C1314.25 697.08 1325.69 692.387 1333.9 683C1342.41 673.613 1346.66 661.587 1346.66 646.92V643.84H1301.78C1292.39 643.84 1284.77 646.48 1278.9 651.76C1273.03 657.04 1270.1 663.933 1270.1 672.44C1270.1 679.773 1272.89 685.787 1278.46 690.48C1284.03 694.88 1291.07 697.08 1299.58 697.08Z" fill="url(#paint10_linear)"/>
<path d="M1637.49 516.24L1556.97 737.12L1525.73 827.76H1467.21L1499.77 736.24L1419.25 516.24H1481.73L1528.37 659.24L1574.57 516.24H1637.49Z" fill="url(#paint11_linear)"/>
<path d="M193.32 860H259.76V1168H193.32V1039.08H66.6V1168H0.600006V860H66.6V982.32H193.32V860Z" fill="url(#paint12_linear)"/>
<path d="M499.9 1139.4C477.9 1160.81 449.887 1171.52 415.86 1171.52C381.834 1171.52 353.82 1160.81 331.82 1139.4C309.82 1117.69 298.82 1090.27 298.82 1057.12C298.82 1023.97 309.82 996.693 331.82 975.28C353.82 953.573 381.834 942.72 415.86 942.72C449.887 942.72 477.9 953.573 499.9 975.28C521.9 996.693 532.9 1023.97 532.9 1057.12C532.9 1090.27 521.9 1117.69 499.9 1139.4ZM375.82 1101.56C386.087 1113 399.434 1118.72 415.86 1118.72C432.287 1118.72 445.634 1113 455.9 1101.56C466.167 1090.12 471.3 1075.31 471.3 1057.12C471.3 1038.64 466.167 1023.68 455.9 1012.24C445.634 1000.8 432.287 995.08 415.86 995.08C399.434 995.08 386.087 1000.8 375.82 1012.24C365.554 1023.68 360.42 1038.64 360.42 1057.12C360.42 1075.31 365.554 1090.12 375.82 1101.56Z" fill="url(#paint13_linear)"/>
<path d="M554.127 1168V1116.52L670.287 997.28H561.607V946.24H740.247V997.28L625.407 1116.52H746.847V1168H554.127Z" fill="url(#paint14_linear)"/>
<path d="M926.04 1092.76H985.88C981.48 1116.52 969.6 1135.59 950.24 1149.96C930.88 1164.33 907.56 1171.52 880.28 1171.52C844.787 1171.52 816.92 1160.08 796.68 1137.2C776.44 1114.03 766.32 1087.19 766.32 1056.68C766.32 1025.88 775.707 999.187 794.48 976.6C813.547 954.013 840.68 942.72 875.88 942.72C911.96 942.72 939.24 953.573 957.72 975.28C976.2 996.987 985.44 1022.21 985.44 1050.96C985.44 1057.71 985.147 1064.31 984.56 1070.76H825.28C827.627 1086.6 833.494 1099.07 842.88 1108.16C852.56 1116.96 865.027 1121.36 880.28 1121.36C905.8 1121.36 921.054 1111.83 926.04 1092.76ZM875.88 987.6C847.72 987.6 831.147 1002.41 826.16 1032.04H924.28C923.4 1019.13 918.707 1008.57 910.2 1000.36C901.694 991.853 890.254 987.6 875.88 987.6Z" fill="url(#paint15_linear)"/>
<path d="M1043.12 1168V997.28H1000.44V946.24H1043.12V926.44C1043.12 903.267 1050.6 884.787 1065.56 871C1080.81 856.92 1100.9 849.88 1125.84 849.88H1167.64V900.92H1134.2C1125.1 900.92 1117.77 903.56 1112.2 908.84C1106.92 914.12 1104.28 921.16 1104.28 929.96V946.24H1167.64V997.28H1104.28V1168H1043.12Z" fill="url(#paint16_linear)"/>
<path d="M1282.65 942.72C1310.81 942.72 1333.98 950.347 1352.17 965.6C1370.36 980.56 1379.45 1000.51 1379.45 1025.44V1168H1318.73V1137.2C1314.92 1147.47 1307.29 1155.83 1295.85 1162.28C1284.7 1168.44 1271.5 1171.52 1256.25 1171.52C1234.84 1171.52 1217.38 1165.21 1203.89 1152.6C1190.4 1139.99 1183.65 1124.15 1183.65 1105.08C1183.65 1083.37 1190.98 1066.36 1205.65 1054.04C1220.61 1041.43 1240.26 1035.12 1264.61 1035.12H1302.01C1307.29 1035.12 1311.4 1033.65 1314.33 1030.72C1317.26 1027.49 1318.73 1023.53 1318.73 1018.84C1318.73 1009.45 1315.21 1001.97 1308.17 996.4C1301.13 990.533 1291.45 987.6 1279.13 987.6C1266.52 987.6 1256.54 990.973 1249.21 997.72C1242.17 1004.47 1238.36 1012.83 1237.77 1022.8H1183.21C1184.68 999.627 1194.21 980.56 1211.81 965.6C1229.7 950.347 1253.32 942.72 1282.65 942.72ZM1271.65 1127.08C1286.32 1127.08 1297.76 1122.39 1305.97 1113C1314.48 1103.61 1318.73 1091.59 1318.73 1076.92V1073.84H1273.85C1264.46 1073.84 1256.84 1076.48 1250.97 1081.76C1245.1 1087.04 1242.17 1093.93 1242.17 1102.44C1242.17 1109.77 1244.96 1115.79 1250.53 1120.48C1256.1 1124.88 1263.14 1127.08 1271.65 1127.08Z" fill="url(#paint17_linear)"/>
<defs>
<linearGradient id="paint0_linear" x1="0.600007" y1="700.471" x2="1616.36" y2="712.881" gradientUnits="userSpaceOnUse">
<stop stop-color="#E95454"/>
<stop offset="0.130208" stop-color="#E77059"/>
<stop offset="0.25" stop-color="#F6C24C"/>
<stop offset="0.401042" stop-color="#10A34F"/>
<stop offset="0.552083" stop-color="#5ED1FA"/>
<stop offset="0.703125" stop-color="#5196E8"/>
<stop offset="0.854167" stop-color="#9473F2"/>
<stop offset="1" stop-color="#C275E1"/>
</linearGradient>
<linearGradient id="paint1_linear" x1="0.600007" y1="700.471" x2="1616.36" y2="712.881" gradientUnits="userSpaceOnUse">
<stop stop-color="#E95454"/>
<stop offset="0.130208" stop-color="#E77059"/>
<stop offset="0.25" stop-color="#F6C24C"/>
<stop offset="0.401042" stop-color="#10A34F"/>
<stop offset="0.552083" stop-color="#5ED1FA"/>
<stop offset="0.703125" stop-color="#5196E8"/>
<stop offset="0.854167" stop-color="#9473F2"/>
<stop offset="1" stop-color="#C275E1"/>
</linearGradient>
<linearGradient id="paint2_linear" x1="0.600007" y1="700.471" x2="1616.36" y2="712.881" gradientUnits="userSpaceOnUse">
<stop stop-color="#E95454"/>
<stop offset="0.130208" stop-color="#E77059"/>
<stop offset="0.25" stop-color="#F6C24C"/>
<stop offset="0.401042" stop-color="#10A34F"/>
<stop offset="0.552083" stop-color="#5ED1FA"/>
<stop offset="0.703125" stop-color="#5196E8"/>
<stop offset="0.854167" stop-color="#9473F2"/>
<stop offset="1" stop-color="#C275E1"/>
</linearGradient>
<linearGradient id="paint3_linear" x1="0.600007" y1="700.471" x2="1616.36" y2="712.881" gradientUnits="userSpaceOnUse">
<stop stop-color="#E95454"/>
<stop offset="0.130208" stop-color="#E77059"/>
<stop offset="0.25" stop-color="#F6C24C"/>
<stop offset="0.401042" stop-color="#10A34F"/>
<stop offset="0.552083" stop-color="#5ED1FA"/>
<stop offset="0.703125" stop-color="#5196E8"/>
<stop offset="0.854167" stop-color="#9473F2"/>
<stop offset="1" stop-color="#C275E1"/>
</linearGradient>
<linearGradient id="paint4_linear" x1="0.600007" y1="700.471" x2="1616.36" y2="712.881" gradientUnits="userSpaceOnUse">
<stop stop-color="#E95454"/>
<stop offset="0.130208" stop-color="#E77059"/>
<stop offset="0.25" stop-color="#F6C24C"/>
<stop offset="0.401042" stop-color="#10A34F"/>
<stop offset="0.552083" stop-color="#5ED1FA"/>
<stop offset="0.703125" stop-color="#5196E8"/>
<stop offset="0.854167" stop-color="#9473F2"/>
<stop offset="1" stop-color="#C275E1"/>
</linearGradient>
<linearGradient id="paint5_linear" x1="0.600007" y1="700.471" x2="1616.36" y2="712.881" gradientUnits="userSpaceOnUse">
<stop stop-color="#E95454"/>
<stop offset="0.130208" stop-color="#E77059"/>
<stop offset="0.25" stop-color="#F6C24C"/>
<stop offset="0.401042" stop-color="#10A34F"/>
<stop offset="0.552083" stop-color="#5ED1FA"/>
<stop offset="0.703125" stop-color="#5196E8"/>
<stop offset="0.854167" stop-color="#9473F2"/>
<stop offset="1" stop-color="#C275E1"/>
</linearGradient>
<linearGradient id="paint6_linear" x1="0.600007" y1="700.471" x2="1616.36" y2="712.881" gradientUnits="userSpaceOnUse">
<stop stop-color="#E95454"/>
<stop offset="0.130208" stop-color="#E77059"/>
<stop offset="0.25" stop-color="#F6C24C"/>
<stop offset="0.401042" stop-color="#10A34F"/>
<stop offset="0.552083" stop-color="#5ED1FA"/>
<stop offset="0.703125" stop-color="#5196E8"/>
<stop offset="0.854167" stop-color="#9473F2"/>
<stop offset="1" stop-color="#C275E1"/>
</linearGradient>
<linearGradient id="paint7_linear" x1="0.600007" y1="700.471" x2="1616.36" y2="712.881" gradientUnits="userSpaceOnUse">
<stop stop-color="#E95454"/>
<stop offset="0.130208" stop-color="#E77059"/>
<stop offset="0.25" stop-color="#F6C24C"/>
<stop offset="0.401042" stop-color="#10A34F"/>
<stop offset="0.552083" stop-color="#5ED1FA"/>
<stop offset="0.703125" stop-color="#5196E8"/>
<stop offset="0.854167" stop-color="#9473F2"/>
<stop offset="1" stop-color="#C275E1"/>
</linearGradient>
<linearGradient id="paint8_linear" x1="0.600007" y1="700.471" x2="1616.36" y2="712.881" gradientUnits="userSpaceOnUse">
<stop stop-color="#E95454"/>
<stop offset="0.130208" stop-color="#E77059"/>
<stop offset="0.25" stop-color="#F6C24C"/>
<stop offset="0.401042" stop-color="#10A34F"/>
<stop offset="0.552083" stop-color="#5ED1FA"/>
<stop offset="0.703125" stop-color="#5196E8"/>
<stop offset="0.854167" stop-color="#9473F2"/>
<stop offset="1" stop-color="#C275E1"/>
</linearGradient>
<linearGradient id="paint9_linear" x1="0.600007" y1="700.471" x2="1616.36" y2="712.881" gradientUnits="userSpaceOnUse">
<stop stop-color="#E95454"/>
<stop offset="0.130208" stop-color="#E77059"/>
<stop offset="0.25" stop-color="#F6C24C"/>
<stop offset="0.401042" stop-color="#10A34F"/>
<stop offset="0.552083" stop-color="#5ED1FA"/>
<stop offset="0.703125" stop-color="#5196E8"/>
<stop offset="0.854167" stop-color="#9473F2"/>
<stop offset="1" stop-color="#C275E1"/>
</linearGradient>
<linearGradient id="paint10_linear" x1="0.600007" y1="700.471" x2="1616.36" y2="712.881" gradientUnits="userSpaceOnUse">
<stop stop-color="#E95454"/>
<stop offset="0.130208" stop-color="#E77059"/>
<stop offset="0.25" stop-color="#F6C24C"/>
<stop offset="0.401042" stop-color="#10A34F"/>
<stop offset="0.552083" stop-color="#5ED1FA"/>
<stop offset="0.703125" stop-color="#5196E8"/>
<stop offset="0.854167" stop-color="#9473F2"/>
<stop offset="1" stop-color="#C275E1"/>
</linearGradient>
<linearGradient id="paint11_linear" x1="0.600007" y1="700.471" x2="1616.36" y2="712.881" gradientUnits="userSpaceOnUse">
<stop stop-color="#E95454"/>
<stop offset="0.130208" stop-color="#E77059"/>
<stop offset="0.25" stop-color="#F6C24C"/>
<stop offset="0.401042" stop-color="#10A34F"/>
<stop offset="0.552083" stop-color="#5ED1FA"/>
<stop offset="0.703125" stop-color="#5196E8"/>
<stop offset="0.854167" stop-color="#9473F2"/>
<stop offset="1" stop-color="#C275E1"/>
</linearGradient>
<linearGradient id="paint12_linear" x1="0.600007" y1="700.471" x2="1616.36" y2="712.881" gradientUnits="userSpaceOnUse">
<stop stop-color="#E95454"/>
<stop offset="0.130208" stop-color="#E77059"/>
<stop offset="0.25" stop-color="#F6C24C"/>
<stop offset="0.401042" stop-color="#10A34F"/>
<stop offset="0.552083" stop-color="#5ED1FA"/>
<stop offset="0.703125" stop-color="#5196E8"/>
<stop offset="0.854167" stop-color="#9473F2"/>
<stop offset="1" stop-color="#C275E1"/>
</linearGradient>
<linearGradient id="paint13_linear" x1="0.600007" y1="700.471" x2="1616.36" y2="712.881" gradientUnits="userSpaceOnUse">
<stop stop-color="#E95454"/>
<stop offset="0.130208" stop-color="#E77059"/>
<stop offset="0.25" stop-color="#F6C24C"/>
<stop offset="0.401042" stop-color="#10A34F"/>
<stop offset="0.552083" stop-color="#5ED1FA"/>
<stop offset="0.703125" stop-color="#5196E8"/>
<stop offset="0.854167" stop-color="#9473F2"/>
<stop offset="1" stop-color="#C275E1"/>
</linearGradient>
<linearGradient id="paint14_linear" x1="0.600007" y1="700.471" x2="1616.36" y2="712.881" gradientUnits="userSpaceOnUse">
<stop stop-color="#E95454"/>
<stop offset="0.130208" stop-color="#E77059"/>
<stop offset="0.25" stop-color="#F6C24C"/>
<stop offset="0.401042" stop-color="#10A34F"/>
<stop offset="0.552083" stop-color="#5ED1FA"/>
<stop offset="0.703125" stop-color="#5196E8"/>
<stop offset="0.854167" stop-color="#9473F2"/>
<stop offset="1" stop-color="#C275E1"/>
</linearGradient>
<linearGradient id="paint15_linear" x1="0.600007" y1="700.471" x2="1616.36" y2="712.881" gradientUnits="userSpaceOnUse">
<stop stop-color="#E95454"/>
<stop offset="0.130208" stop-color="#E77059"/>
<stop offset="0.25" stop-color="#F6C24C"/>
<stop offset="0.401042" stop-color="#10A34F"/>
<stop offset="0.552083" stop-color="#5ED1FA"/>
<stop offset="0.703125" stop-color="#5196E8"/>
<stop offset="0.854167" stop-color="#9473F2"/>
<stop offset="1" stop-color="#C275E1"/>
</linearGradient>
<linearGradient id="paint16_linear" x1="0.600007" y1="700.471" x2="1616.36" y2="712.881" gradientUnits="userSpaceOnUse">
<stop stop-color="#E95454"/>
<stop offset="0.130208" stop-color="#E77059"/>
<stop offset="0.25" stop-color="#F6C24C"/>
<stop offset="0.401042" stop-color="#10A34F"/>
<stop offset="0.552083" stop-color="#5ED1FA"/>
<stop offset="0.703125" stop-color="#5196E8"/>
<stop offset="0.854167" stop-color="#9473F2"/>
<stop offset="1" stop-color="#C275E1"/>
</linearGradient>
<linearGradient id="paint17_linear" x1="0.600007" y1="700.471" x2="1616.36" y2="712.881" gradientUnits="userSpaceOnUse">
<stop stop-color="#E95454"/>
<stop offset="0.130208" stop-color="#E77059"/>
<stop offset="0.25" stop-color="#F6C24C"/>
<stop offset="0.401042" stop-color="#10A34F"/>
<stop offset="0.552083" stop-color="#5ED1FA"/>
<stop offset="0.703125" stop-color="#5196E8"/>
<stop offset="0.854167" stop-color="#9473F2"/>
<stop offset="1" stop-color="#C275E1"/>
</linearGradient>
</defs>
</svg>
